<?xml version="1.0" encoding="iso-8859-1"?>
<svg version="1.1" id="Capa_1" xmlns="http://www.w3.org/2000/svg" xmlns:xlink="http://www.w3.org/1999/xlink" x="0px" y="0px"
	 viewBox="0 0 512 512" style="enable-background:new 0 0 512 512;" xml:space="preserve" fill="#a1abb9">
<g>
	<g>
		<path d="M497,332c-7.711,0-180.924,0-189.721,0c4.42-4.42,125.843-125.843,132.738-132.739c5.858-5.858,5.858-15.355,0-21.213
			L333.952,71.982c-5.853-5.854-15.357-5.857-21.213,0C306.097,78.624,184.924,199.797,180,204.721V15c0-8.284-6.716-15-15-15H15
			C6.716,0,0,6.716,0,15v392c0,1.501,0.227,2.948,0.637,4.315C0.22,414.82,0,418.385,0,422c0,49.626,40.374,90,90,90
			c5.992,0,399.074,0,407,0c8.284,0,15-6.716,15-15V347C512,338.716,505.284,332,497,332z M323.346,103.802l84.853,84.853
			l-84.853,84.853l-84.853-84.853L323.346,103.802z M217.279,209.868l84.853,84.853L264.853,332c-7.401,0-162.358,0-169.706,0
			C106.404,320.743,204.661,222.486,217.279,209.868z M30,30h120v122H30V30z M30,182h120v52.721l-120,120V182z M180,482H90
			c-33.084,0-60-26.916-60-60s26.916-60,60-60h90V482z M330,482H210V362h120V482z M482,482H360V362h122V482z"/>
	</g>
</g>
<g>
	<g>
		<circle cx="90" cy="422" r="15"/>
	</g>
</g>
</svg>
