<?xml version="1.0" encoding="iso-8859-1"?>
<svg version="1.1" id="Capa_1" xmlns="http://www.w3.org/2000/svg" xmlns:xlink="http://www.w3.org/1999/xlink" x="0px" y="0px"
	 viewBox="0 0 56 56" style="enable-background:new 0 0 56 56;" xml:space="preserve">
<g>
	<rect y="14.5" width="56" height="39"/>
	<path d="M3,12.5h50c0.552,0,1-0.448,1-1s-0.448-1-1-1H3c-0.552,0-1,0.448-1,1S2.448,12.5,3,12.5z"/>
	<path d="M6,8.5h44c0.552,0,1-0.448,1-1s-0.448-1-1-1H6c-0.552,0-1,0.448-1,1S5.448,8.5,6,8.5z"/>
	<path d="M9,4.5h38c0.552,0,1-0.448,1-1s-0.448-1-1-1H9c-0.552,0-1,0.448-1,1S8.448,4.5,9,4.5z"/>
</g>
</svg>
