<?xml version="1.0" encoding="iso-8859-1"?>
<!DOCTYPE svg PUBLIC "-//W3C//DTD SVG 1.1//EN" "http://www.w3.org/Graphics/SVG/1.1/DTD/svg11.dtd">
<svg version="1.1" id="Capa_1" xmlns="http://www.w3.org/2000/svg" xmlns:xlink="http://www.w3.org/1999/xlink" x="0px" y="0px"
	 width="612.85px" height="612.85px" viewBox="0 0 612.85 612.85" style="enable-background:new 0 0 612.85 612.85;"
	 xml:space="preserve">
<g fill="#fff">
	<g>
		<path d="M600.485,221.792c-14.431-50.499-40.137-94.332-77.939-132.134c-29.109-29.103-62.616-51.376-100.026-66.57
			C384.995,7.843,346.585,0,306.778,0v37.467c69.91,0,138.928,26.998,190.005,78.282c32.886,33.014,55.38,71.63,67.912,115.413
			c12.553,43.869,14.38,87.98,4.682,132.47c-9.699,44.489-29.438,83.962-59.548,118.418l-52.184-51.177v127.452l130.13,2.006
			l-52.184-52.183c34.791-39.479,57.871-84.641,69.247-135.153C616.207,322.482,614.83,271.983,600.485,221.792z"/>
		<path d="M47.854,382.03c-12.532-43.776-14.052-87.98-4.353-132.47c9.706-44.497,29.774-84.305,59.883-118.76l52.183,51.854V54.531
			L25.438,53.189l51.855,51.519c-34.791,39.473-57.878,84.633-69.247,135.146c-11.376,50.513-10.084,101.04,4.346,151.539
			c14.344,50.198,40.143,94.003,77.946,131.806c29.103,29.104,62.609,51.377,100.02,66.57c37.532,15.244,76.276,23.08,116.42,23.08
			v-36.797c-70.924,0-138.929-27.325-190.348-78.944C83.544,464.087,60.408,425.898,47.854,382.03z"/>
	</g>
</g>
</svg>
