<?xml version="1.0" encoding="iso-8859-1"?>
<svg version="1.1" id="Capa_1" xmlns="http://www.w3.org/2000/svg" xmlns:xlink="http://www.w3.org/1999/xlink" x="0px" y="0px"
	 viewBox="0 0 512 512" style="enable-background:new 0 0 512 512;" xml:space="preserve" fill="#fff">
<g>
	<g>
		<path d="M491.606,34.393l-30-30C458.794,1.58,454.979,0,451,0c-26.15,0-304.116,0-317.573,0c-12.021,0-23.321,4.681-31.82,13.18
			L29.181,85.607c-8.5,8.5-13.181,19.8-13.181,31.82V467c0,24.813,20.187,45,45,45h390c24.813,0,45-20.187,45-45V45
			C496,41.022,494.42,37.206,491.606,34.393z M166,29.9h150V105c0,8.284,6.716,15,15,15s15-6.716,15-15V30h30v105
			c0,8.271-6.729,15-15,15H181c-8.271,0-15-6.729-15-15V29.9z M376,482H136V331h240V482z M376,301H136v-15
			c0-8.271,6.729-15.1,15-15.1h210c8.271,0,15,6.829,15,15.1V301z M466,467c0,8.271-6.729,15-15,15h-45V286
			c0-24.813-20.187-45-45-45H151c-24.813,0-45,20.187-45,45v196H61c-8.271,0-15-6.729-15-15V117.427
			c0-4.006,1.561-7.773,4.394-10.607l72.426-72.427c2.832-2.832,6.6-4.393,10.607-4.393H136v105c0,24.813,20.187,44.9,45,44.9h180
			c24.813,0,45-20.087,45-44.9V30h38.787L466,51.213V467z"/>
	</g>
</g>
</svg>
