<svg version="1.1" id="Ebene_1" xmlns="http://www.w3.org/2000/svg" xmlns:xlink="http://www.w3.org/1999/xlink" x="0px" y="0px" viewBox="0 0 64 64" style="enable-background:new 0 0 64 64;" xml:space="preserve"><path style="fill-rule:evenodd;clip-rule:evenodd;fill:#139a58;" d="M59.112,22.867c-0.941-5.133-3.189-9.616-6.739-13.442 c-1.499-1.615-3.177-3.019-5.031-4.21c-3.452-2.219-7.212-3.579-11.291-4.06c-0.497-0.059-1.001-0.051-1.491-0.168 c-1.173,0-2.346,0-3.519,0c-0.038,0.089-0.12,0.056-0.184,0.062c-0.906,0.08-1.808,0.183-2.701,0.353 c-6.534,1.238-11.901,4.447-16.054,9.629c-3.416,4.262-5.298,9.152-5.704,14.603c-0.197,2.642-0.006,5.26,0.573,7.842 c0.431,1.922,1.072,3.777,1.936,5.552c0.076,0.151,0.151,0.302,0.228,0.453c1.419,2.794,3.244,5.283,5.53,7.433 c1.204,1.132,2.491,2.156,3.884,3.04c4.268,2.709,8.928,4.13,13.99,4.194c0.31,0.004,0.395,0.081,0.393,0.398 c-0.014,2.709-0.009,5.419-0.008,8.128c0,0.105,0.009,0.21,0.014,0.341c0.088-0.036,0.143-0.056,0.196-0.081 c5.088-2.391,9.761-5.412,13.927-9.199c0.829-0.753,1.622-1.543,2.385-2.365c0.327-0.352,0.65-0.709,0.978-1.06 c0.506-0.541,0.943-1.145,1.42-1.714c0.55-0.657,1.044-1.354,1.532-2.057c1.078-1.553,2.04-3.172,2.849-4.883 c0.409-0.865,0.799-1.737,1.143-2.629c0.012-0.017,0.027-0.032,0.034-0.05c0.94-2.443,1.542-4.971,1.863-7.565 c0.112-0.903,0.184-1.812,0.23-2.721C59.592,26.736,59.465,24.792,59.112,22.867z M24.85,39.175 c-0.457,0.124-0.923,0.195-1.388,0.263c-0.36,0.053-0.594-0.147-0.729-0.472c0.001-1.001,0.002-2.002,0.004-3.003 c0.017-0.295-0.101-0.61,0.135-0.87c0.117-0.129,0.249-0.217,0.429-0.262c0.524-0.132,1.055-0.238,1.533-0.522 c0.88-0.525,1.427-1.282,1.669-2.27c0.038-0.155,0.074-0.312,0.11-0.468c-2.111-0.004-4.221-0.008-6.332-0.011 c-0.183,0-0.363-0.007-0.54-0.056c-0.538-0.149-0.95-0.64-0.951-1.195c-0.004-3.191,0.002-6.383,0.004-9.574 c-0.044-0.51,0-0.988,0.43-1.352c0.233-0.197,0.489-0.317,0.795-0.317c3.103-0.001,6.207,0.002,9.31-0.002 c0.821-0.001,1.501,0.827,1.238,1.637c0.063,0.153,0.052,0.315,0.052,0.475c0.001,3.478,0.02,6.956-0.006,10.434 c-0.017,2.308-0.916,4.249-2.605,5.823c-0.088,0.082-0.173,0.167-0.26,0.251C26.871,38.355,25.924,38.884,24.85,39.175z M42.018,38.953c-0.039,0.011-0.079,0.022-0.118,0.033c-0.022,0.013-0.045,0.026-0.067,0.038c-0.601,0.17-1.207,0.311-1.826,0.402 c-0.473,0.069-0.83-0.198-0.835-0.673c-0.004-0.333-0.007-0.667-0.01-1c0.006-0.597,0.011-1.194,0.017-1.791 c-0.003-0.131-0.008-0.263-0.008-0.394c0.001-0.458,0.177-0.651,0.747-0.782c0.722-0.166,1.403-0.399,1.965-0.921 c0.675-0.627,1.016-1.409,1.171-2.294c-1.95-0.004-3.899-0.008-5.848-0.011c-0.212,0-0.424,0.003-0.636-0.001 c-0.797-0.013-1.341-0.564-1.341-1.364c0.001-3.152,0.005-6.303,0.008-9.455c0-0.03-0.003-0.06-0.005-0.091 c-0.061-0.59,0.108-1.073,0.632-1.401c0.204-0.128,0.425-0.181,0.659-0.181c3.083-0.002,6.165,0.001,9.248-0.002 c0.821-0.001,1.501,0.827,1.238,1.637c0.063,0.153,0.052,0.314,0.052,0.474c0,3.483,0.002,6.967-0.001,10.451 c-0.003,3.112-1.953,6.024-4.828,7.22C42.158,38.877,42.089,38.917,42.018,38.953c0.051,0.064,0.113,0.081,0.176,0.083 C42.131,39.034,42.069,39.016,42.018,38.953z"></path><path style="fill-rule:evenodd;clip-rule:evenodd;fill:#FFFFFF;" d="M41.833,39.024c-0.601,0.17-1.207,0.311-1.826,0.402 c-0.473,0.069-0.83-0.198-0.835-0.673c-0.004-0.333-0.007-0.667-0.01-1c0.006-0.597,0.011-1.194,0.017-1.791 c0.172-0.398,0.544-0.471,0.907-0.553c1.685-0.38,2.717-1.48,2.96-3.183c0.03-0.212,0.161-0.436,0.008-0.655 c-1.95-0.004-3.899-0.008-5.848-0.011c-0.212,0-0.424,0.003-0.636-0.001c-0.797-0.013-1.341-0.564-1.341-1.364 c0.001-3.152,0.005-6.303,0.008-9.455c0-0.03-0.003-0.06-0.005-0.091c0.085-0.037,0.091-0.126,0.129-0.195 c0.263-0.47,0.656-0.723,1.204-0.723c3.06,0.001,6.119-0.001,9.179,0.002c0.622,0,1.09,0.365,1.266,0.969 c0.063,0.153,0.052,0.314,0.052,0.474c0,3.483,0.002,6.967-0.001,10.451c-0.003,3.112-1.953,6.024-4.828,7.22 c-0.073,0.03-0.142,0.07-0.213,0.106c-0.04,0.011-0.079,0.022-0.118,0.033C41.877,38.999,41.855,39.011,41.833,39.024z"></path><path style="fill-rule:evenodd;clip-rule:evenodd;fill:#FFFFFF;" d="M27.747,37.684c-0.877,0.671-1.824,1.2-2.898,1.491 c-0.457,0.124-0.923,0.195-1.388,0.263c-0.36,0.053-0.594-0.147-0.729-0.472c0.001-1.001,0.002-2.002,0.004-3.003 c0.165-0.383,0.519-0.463,0.873-0.544c1.711-0.395,2.692-1.415,2.985-3.136c0.039-0.228,0.169-0.472,0.017-0.711 c-2.111-0.004-4.221-0.008-6.332-0.011c-0.183,0-0.363-0.007-0.54-0.056c-0.538-0.149-0.95-0.64-0.951-1.195 c-0.004-3.191,0.002-6.383,0.004-9.574c0.228-0.595,0.615-1,1.291-1.001c3.082-0.006,6.164-0.004,9.245-0.001 c0.598,0.001,1.07,0.381,1.236,0.968c0.063,0.153,0.052,0.315,0.052,0.475c0.001,3.478,0.02,6.956-0.006,10.434 c-0.017,2.308-0.916,4.249-2.605,5.823C27.919,37.515,27.834,37.6,27.747,37.684z"></path><path style="fill-rule:evenodd;clip-rule:evenodd;fill:#50A245;" d="M30.566,20.702c-0.167-0.588-0.638-0.967-1.236-0.968 c-3.082-0.003-6.164-0.005-9.245,0.001c-0.676,0.001-1.063,0.406-1.291,1.001c-0.044-0.51,0-0.988,0.43-1.352 c0.233-0.197,0.489-0.317,0.795-0.317c3.103-0.001,6.207,0.002,9.31-0.002C30.149,19.064,30.829,19.892,30.566,20.702z"></path><path style="fill-rule:evenodd;clip-rule:evenodd;fill:#50A245;" d="M47.008,20.702c-0.177-0.604-0.644-0.968-1.266-0.969 c-3.06-0.003-6.119-0.001-9.179-0.002c-0.547,0-0.94,0.253-1.204,0.723c-0.038,0.068-0.044,0.157-0.129,0.195 c-0.061-0.59,0.108-1.073,0.632-1.401c0.204-0.128,0.425-0.181,0.659-0.181c3.083-0.002,6.165,0.001,9.248-0.002 C46.591,19.064,47.271,19.892,47.008,20.702z"></path><path style="fill-rule:evenodd;clip-rule:evenodd;fill:#139a58;" d="M43.053,31.571c0.153,0.219,0.022,0.443-0.008,0.655 c-0.243,1.702-1.275,2.802-2.96,3.183c-0.363,0.082-0.735,0.154-0.907,0.553c-0.003-0.131-0.008-0.262-0.008-0.393 c0.001-0.458,0.177-0.651,0.747-0.782c0.722-0.166,1.403-0.399,1.965-0.921C42.558,33.238,42.898,32.456,43.053,31.571z"></path><path style="fill-rule:evenodd;clip-rule:evenodd;fill:#139a58;" d="M26.612,31.571c0.152,0.239,0.022,0.483-0.017,0.711 c-0.293,1.72-1.274,2.741-2.985,3.136c-0.354,0.082-0.708,0.161-0.873,0.544c0.017-0.295-0.101-0.61,0.135-0.87 c0.117-0.129,0.249-0.217,0.429-0.262c0.524-0.132,1.055-0.238,1.533-0.522c0.88-0.525,1.427-1.282,1.669-2.27 C26.54,31.884,26.575,31.727,26.612,31.571z"></path><path style="fill-rule:evenodd;clip-rule:evenodd;fill:#139a58;" d="M41.833,39.024c0.022-0.013,0.045-0.025,0.067-0.038 C41.877,38.999,41.855,39.011,41.833,39.024z"></path></svg>