<?xml version="1.0" encoding="iso-8859-1"?>
<!-- Generator: Adobe Illustrator 19.0.0, SVG Export Plug-In . SVG Version: 6.00 Build 0)  -->
<svg version="1.1" id="Capa_1" xmlns="http://www.w3.org/2000/svg" xmlns:xlink="http://www.w3.org/1999/xlink" x="0px" y="0px"
	 viewBox="0 0 512.017 512.017" style="enable-background:new 0 0 512.017 512.017;" xml:space="preserve">
<path style="fill:#4CAF50;" d="M255.989,0C132.277,0.022,32.006,100.327,32.028,224.039
	c0.021,119.535,93.896,217.992,213.294,223.705v53.589c-0.009,5.891,4.759,10.674,10.65,10.684c1.061,0.002,2.117-0.155,3.132-0.465
	C382.944,473.963,479.989,347.733,479.989,224C479.86,100.342,379.647,0.129,255.989,0z"/>
<g>
	<path style="fill:#FAFAFA;" d="M234.656,149.333h-85.333c-5.891,0-10.667,4.776-10.667,10.667v85.333
		c0,5.891,4.776,10.667,10.667,10.667h53.333v32c-0.006,4.247,2.508,8.093,6.4,9.792c1.349,0.577,2.8,0.874,4.267,0.875
		c2.71,0.001,5.318-1.028,7.296-2.88c14.295-13.106,23.118-31.124,24.704-50.453V160
		C245.322,154.109,240.547,149.333,234.656,149.333z"/>
	<path style="fill:#FAFAFA;" d="M362.656,149.333h-85.333c-5.891,0-10.667,4.776-10.667,10.667v85.333
		c0,5.891,4.776,10.667,10.667,10.667h53.333v32c-0.006,4.247,2.508,8.093,6.4,9.792c1.349,0.577,2.8,0.874,4.267,0.875
		c2.71,0.001,5.318-1.028,7.296-2.88c14.295-13.106,23.118-31.124,24.704-50.453V160
		C373.322,154.109,368.547,149.333,362.656,149.333z"/>
</g>
</svg>
