<?xml version="1.0" ?><svg height="512" width="512"  version="1.1" viewBox="0 0 60 60"  xmlns="http://www.w3.org/2000/svg" xmlns:xlink="http://www.w3.org/1999/xlink"><title/><desc/><defs/><g fill="none" fill-rule="evenodd" id="Page-1" stroke="none" stroke-width="1"><g id="Social_icons" transform="translate(-422.000000, -352.000000)"><g id="Line" transform="translate(422.000000, 352.000000)"><path d="M0,30 C0,13.4314567 13.4314567,0 30,0 C46.5685433,0 60,13.4314567 60,30 C60,46.5685433 46.5685433,60 30,60 C13.4314567,60 0,46.5685433 0,30 Z" fill="#00B900" id="back"/><path d="M30.4998227,14 C20.2998112,14 12,20.6861919 12,28.9046801 C12,36.2725184 18.5815449,42.4428982 27.4718439,43.609725 C28.0743897,43.73859 28.8943343,44.004066 29.101803,44.5153008 C29.2883474,44.9797077 29.2238016,45.707126 29.1613837,46.1761101 C29.1613837,46.1761101 28.9443395,47.4721539 28.8975261,47.7481926 C28.8170212,48.2125995 28.5258557,49.5642735 30.4998227,48.7382701 C32.4744989,47.9122666 41.1541374,42.5101475 45.0353976,38.0748679 C47.7158221,35.1560406 49,32.1939062 49,28.9046801 C49,20.6861919 40.7012528,14 30.4998227,14 Z" fill="#FFFFFF" id="Fill-1"/><path d="M25.3573436,25 C25.1602249,25 25,25.1654011 25,25.3686081 L25,33.6313919 C25,33.8349624 25.1602249,34 25.3573436,34 L26.6430077,34 C26.8401265,34 27,33.8349624 27,33.6313919 L27,25.3686081 C27,25.1654011 26.8401265,25 26.6430077,25 L25.3573436,25 Z" fill="#00B900" id="Fill-2"/><path d="M35.6241909,25 L34.2707601,25 C34.0632513,25 33.894951,25.1654011 33.894951,25.3686081 L33.894951,30.2775668 L30.0421676,25.163947 C30.0332902,25.1508603 30.0233031,25.1385007 30.0129462,25.1265046 L30.0103569,25.1243235 C30.0029591,25.1159625 29.9955613,25.1086921 29.9877936,25.1014218 C29.9855743,25.0992406 29.9833549,25.0974231 29.9807657,25.0952419 C29.9744775,25.0894256 29.9678195,25.0839729 29.9607916,25.0788836 C29.9578324,25.0759754 29.9545034,25.0737943 29.9511744,25.0712497 C29.9445164,25.0668875 29.9382282,25.0621617 29.9315702,25.058163 C29.9278713,25.0556184 29.9241724,25.0534373 29.9201036,25.0516197 C29.9134455,25.047621 29.9067875,25.0436223 29.9001295,25.0403506 C29.8960607,25.038533 29.8923618,25.0363519 29.888293,25.0348978 C29.881265,25.0316261 29.8742371,25.0283545 29.8668393,25.0258098 C29.8624006,25.0243558 29.8587017,25.0229017 29.8546329,25.0214476 C29.8472351,25.018903 29.8398372,25.0163583 29.8320695,25.0145408 C29.8280007,25.0130867 29.823562,25.0123596 29.8191234,25.0109056 C29.8117255,25.0094515 29.8046976,25.0076339 29.7976697,25.0061798 C29.7924912,25.0054528 29.7869429,25.0047257 29.7817644,25.0043622 C29.7751063,25.0029082 29.7684483,25.0025446 29.7617903,25.0018176 C29.7555021,25.0010906 29.749214,25.0010906 29.7425559,25.000727 C29.7377474,25.000727 29.7340485,25 29.7292399,25 L28.376179,25 C28.1686702,25 28,25.1654011 28,25.3686081 L28,33.6313919 C28,33.8349624 28.1686702,34 28.376179,34 L29.7292399,34 C29.9371186,34 30.1054189,33.8349624 30.1054189,33.6313919 L30.1054189,28.7238872 L33.9630109,33.8440504 C33.9896431,33.8811293 34.0225633,33.9113014 34.0584428,33.9352936 C34.0595524,33.9360207 34.061032,33.9371112 34.0621417,33.9382018 C34.0699094,33.9429275 34.0776771,33.9476533 34.0854448,33.9520155 C34.0891437,33.9541966 34.0924727,33.9556507 34.0961716,33.9574683 C34.10172,33.96074 34.1080081,33.9636481 34.1139264,33.9661927 C34.1202145,33.9687374 34.1257629,33.971282 34.1324209,33.9738266 C34.1361198,33.9752807 34.1398188,33.9767348 34.1435177,33.9778253 C34.152395,33.981097 34.1605326,33.9836417 34.1690401,33.9861863 C34.1708896,33.9861863 34.172739,33.9869133 34.1745885,33.9872768 C34.2052894,33.9952743 34.2374699,34 34.2707601,34 L35.6241909,34 C35.8320695,34 36,33.8349624 36,33.6313919 L36,25.3686081 C36,25.1654011 35.8320695,25 35.6241909,25" fill="#00B900" id="Fill-3"/><path d="M23.6345287,31.9309342 L20.0511804,31.9309342 L20.0511804,25.3693202 C20.0511804,25.1653944 19.8871869,25 19.6853487,25 L18.3661921,25 C18.1639935,25 18,25.1653944 18,25.3693202 L18,33.6303162 L18,33.6310433 C18,33.7302799 18.0392864,33.8200654 18.1023608,33.8862232 C18.1038025,33.8880407 18.1052442,33.8898582 18.1074067,33.8916758 C18.1092089,33.8934933 18.111011,33.8949473 18.1128131,33.8967648 C18.1787709,33.9607415 18.2674356,34 18.3658317,34 L23.6345287,34 C23.8367273,34 24,33.8342421 24,33.6303162 L24,32.3002545 C24,32.0963286 23.8367273,31.9309342 23.6345287,31.9309342" fill="#00B900" id="Fill-4"/><path d="M42.6345287,27.0690658 C42.8367273,27.0690658 43,26.9040349 43,26.6997455 L43,25.3696838 C43,25.1657579 42.8367273,25 42.6345287,25 L37.3661921,25 L37.3654713,25 C37.2667147,25 37.1776897,25.0399855 37.1117318,25.1043257 C37.1102901,25.1057797 37.108488,25.1068702 37.1074067,25.1083242 C37.1052442,25.1105053 37.1034421,25.1126863 37.1016399,25.1148673 C37.0389259,25.1810251 37,25.2704471 37,25.3693202 L37,25.3696838 L37,33.6306798 L37,33.6310433 C37,33.7302799 37.0392864,33.8200654 37.1023608,33.8862232 C37.1038025,33.8880407 37.1056046,33.8902217 37.1074067,33.8916758 C37.1088484,33.8934933 37.111011,33.8953108 37.1128131,33.8967648 C37.1784105,33.960378 37.2674356,34 37.3654713,34 L42.6345287,34 C42.8367273,34 43,33.8342421 43,33.6306798 L43,32.3002545 C43,32.0966921 42.8367273,31.9309342 42.6345287,31.9309342 L39.0515408,31.9309342 L39.0515408,30.5343511 L42.6345287,30.5343511 C42.8367273,30.5343511 43,30.3689567 43,30.1650309 L43,28.8349691 C43,28.6310433 42.8367273,28.4652854 42.6345287,28.4652854 L39.0515408,28.4652854 L39.0515408,27.0690658 L42.6345287,27.0690658 Z" fill="#00B900" id="Fill-5"/></g></g></g></svg>